<svg version="1.1" id="Layer_1" xmlns="http://www.w3.org/2000/svg" xmlns:xlink="http://www.w3.org/1999/xlink" x="0px" y="0px"
	 width="100%" viewBox="0 0 200 200" enable-background="new 0 0 200 200" xml:space="preserve">
<path fill="#282F39" opacity="1.000000" stroke="none" 
	d="
M201.000000,4.000000 
	C201.000000,68.354225 201.000000,132.708450 200.531342,197.531952 
	C133.708450,198.000824 67.354225,198.000412 1.000000,198.000000 
	C1.000000,133.645767 1.000000,69.291542 1.468657,4.469460 
	C68.291542,4.001070 134.645767,4.000535 201.000000,4.000000 
M28.448355,51.274330 
	C27.972025,52.195492 27.495693,53.116657 27.013903,54.683430 
	C27.014105,55.113850 27.014307,55.544266 27.008379,56.496571 
	C27.012287,56.670502 27.016193,56.844429 27.016283,57.903000 
	C27.020018,60.263985 27.023752,62.624969 27.006773,65.925583 
	C27.006178,77.630867 27.005585,89.336159 27.010319,101.523788 
	C27.010319,101.523788 27.010309,102.006157 26.337635,101.806488 
	C25.559973,100.420128 24.782310,99.033775 23.767242,97.224190 
	C22.417521,100.664223 21.314713,103.474953 20.723879,104.980812 
	C23.990776,106.136215 26.498505,107.023125 28.402466,108.043358 
	C27.896641,108.364929 27.390814,108.686501 26.159569,109.037003 
	C23.896547,110.943314 21.284071,112.584732 19.540598,114.884857 
	C18.832157,115.819473 19.880148,118.230827 20.421127,119.874077 
	C20.573469,120.336830 21.761065,120.458778 22.473825,120.737038 
	C22.985003,119.314812 23.308985,117.782982 24.059658,116.500992 
	C24.820360,115.201889 26.002821,114.149750 27.457714,113.030373 
	C27.457714,113.030373 27.914686,113.073395 28.075441,113.885437 
	C28.076731,115.819199 28.078020,117.752960 27.848209,120.357605 
	C28.096964,121.808449 28.345718,123.259293 29.350418,124.893066 
	C29.603226,124.950523 29.856033,125.007973 29.670443,125.459557 
	C29.131245,125.683685 28.592047,125.907814 27.519688,126.743317 
	C27.337038,129.842682 27.280378,132.955963 26.940058,136.037918 
	C26.508165,139.949112 28.181904,141.551514 32.252167,141.617889 
	C32.501881,142.073349 32.751595,142.528809 32.690422,143.417892 
	C33.006195,144.145523 33.296364,145.483734 33.642033,145.498215 
	C35.419006,145.572723 37.208855,145.202209 38.996738,145.178513 
	C46.504459,145.079056 54.015652,145.132370 61.518707,144.904053 
	C62.696381,144.868225 63.838608,143.667770 65.714836,143.315231 
	C68.319298,143.798874 71.144562,145.473404 73.765633,141.986755 
	C75.162598,141.657379 76.559570,141.328003 78.687889,140.963699 
	C80.457680,140.309540 82.227470,139.655380 84.177017,139.663818 
	C85.149673,140.099167 86.122330,140.534515 88.014130,140.978699 
	C102.684135,140.980499 117.354134,140.982300 132.829117,140.933517 
	C133.556915,139.335358 134.896606,137.744705 134.916321,136.137863 
	C135.083237,122.527702 135.197449,108.910080 134.870316,95.305695 
	C134.792511,92.069771 133.770798,88.265839 131.824585,85.792099 
	C128.105774,81.065323 123.410408,77.106857 118.933990,72.189613 
	C117.723228,70.846817 116.725670,69.181297 115.265213,68.216454 
	C108.539116,63.772881 101.683937,59.524685 95.165947,54.765598 
	C95.124336,53.879353 95.082718,52.993111 95.938477,52.067257 
	C107.139786,53.234982 110.334038,48.179070 113.297691,41.153866 
	C115.212738,36.614330 113.238251,32.452911 108.849480,30.682190 
	C108.849480,30.682190 108.853546,30.307714 108.857414,29.553062 
	C106.781044,24.809044 101.823112,22.634966 96.889877,23.488108 
	C89.893608,24.698023 86.553131,29.852713 82.592323,34.671913 
	C81.724945,34.113632 80.857559,33.555351 79.984528,32.173519 
	C79.668678,29.768810 79.352821,27.364101 79.394554,24.637432 
	C79.258797,24.098732 79.123039,23.560032 78.774017,22.492767 
	C78.814079,20.233528 78.549911,18.060411 75.851814,17.508909 
	C72.082748,16.738495 60.304150,22.442038 57.399723,25.762613 
	C56.620281,25.727169 55.560104,25.342739 55.104198,25.709482 
	C49.683308,30.070257 44.352440,34.542938 38.417183,39.318481 
	C35.275581,43.185345 32.133980,47.052204 28.448355,51.274330 
M133.138016,173.071304 
	C141.763077,172.613510 148.916428,168.450928 156.659470,163.895126 
	C162.928986,160.446564 169.044922,156.805359 174.804031,150.063538 
	C170.485275,150.063538 167.731293,150.063538 164.043808,150.017822 
	C118.891510,150.017822 73.739204,150.017822 28.586905,150.017822 
	C28.426817,150.481369 28.266729,150.944931 28.106642,151.408478 
	C29.741354,152.604782 31.376064,153.801102 33.202030,155.648865 
	C38.079552,158.468460 42.957073,161.288040 48.116974,164.746979 
	C57.733425,168.493942 67.349876,172.240906 77.571785,176.481415 
	C93.108589,180.482468 108.697083,179.099121 124.275543,176.831696 
	C125.256638,176.688904 126.106407,175.643829 127.759087,175.014114 
	C129.280914,174.364288 130.802734,173.714462 133.138016,173.071304 
M172.825012,142.990875 
	C177.043762,143.274399 178.158707,140.853531 176.323364,137.752884 
	C174.178711,134.129654 171.348007,130.824600 168.384140,127.804230 
	C166.306442,125.686890 163.639633,123.089630 161.003143,122.795868 
	C155.275375,122.157669 149.385574,122.689774 143.592941,123.140808 
	C142.330978,123.239067 141.198715,125.003174 139.503265,126.642418 
	C139.454361,129.911377 139.339249,133.181000 139.371750,136.449158 
	C139.423386,141.642181 141.950668,143.425140 147.218597,143.128159 
	C155.454391,142.663879 163.734940,142.993835 172.825012,142.990875 
M28.353127,143.884048 
	C28.412813,143.850830 28.472498,143.817596 28.353127,143.884048 
z"/>
<path fill="#FDFFFF" opacity="1.000000" stroke="none" 
	d="
M201.000000,3.500000 
	C134.645767,4.000535 68.291542,4.001070 1.468657,4.000803 
	C1.048076,2.345619 0.384482,0.878016 3.500268,0.885302 
	C68.499916,1.037309 133.500000,0.999141 198.500000,1.006036 
	C199.828079,1.006177 201.627686,0.507053 201.000000,3.500000 
z"/>
<path fill="#FCFEFF" opacity="1.000000" stroke="none" 
	d="
M1.000000,198.500000 
	C67.354225,198.000412 133.708450,198.000824 200.531342,198.000610 
	C201.000000,198.997574 201.000000,199.995132 201.000000,200.996353 
	C135.495529,201.000000 69.991051,201.009354 4.486691,200.927628 
	C3.273548,200.926117 0.518431,202.532257 1.000000,198.500000 
z"/>
<path fill="#28313C" opacity="1.000000" stroke="none" 
	d="
M30.108843,125.065430 
	C29.856033,125.007973 29.603226,124.950523 29.185688,124.461136 
	C30.908855,123.687492 32.794518,123.064125 34.685009,123.049118 
	C48.450760,122.939865 62.217480,122.953033 76.298294,122.890457 
	C77.115349,122.244339 77.617989,121.635269 78.448105,120.952065 
	C82.394653,118.333839 79.641045,115.635902 78.942902,112.604141 
	C78.632515,108.295715 76.481911,106.939728 72.628265,106.984436 
	C59.869270,107.132462 47.107323,107.009735 34.347046,107.083389 
	C32.565243,107.093681 30.786430,107.621689 29.006233,107.910034 
	C26.498505,107.023125 23.990776,106.136215 20.723879,104.980812 
	C21.314713,103.474953 22.417521,100.664223 23.767242,97.224190 
	C24.782310,99.033775 25.559973,100.420128 26.854519,102.200806 
	C28.653942,103.262077 29.939060,104.512337 31.218626,104.506683 
	C45.647564,104.442886 60.075390,104.164124 74.504143,103.997597 
	C77.973846,103.957550 80.120598,102.378143 80.811493,98.695152 
	C80.090027,96.176270 79.066925,93.993752 79.094009,91.824341 
	C79.259735,78.549194 79.663513,65.277023 80.273300,51.884720 
	C82.433075,52.549522 84.307518,53.333466 86.168854,54.465912 
	C86.146019,55.511738 86.136307,56.209064 85.827881,57.087021 
	C83.713905,59.578545 80.918808,62.072975 86.660309,63.316334 
	C86.703796,64.106827 86.686142,64.560753 86.335487,65.011871 
	C85.336449,65.005791 84.670425,65.002502 83.750534,65.320892 
	C83.664284,69.762573 83.831902,73.882576 84.019974,78.417389 
	C84.026848,85.220436 84.013268,91.608688 83.762955,98.271774 
	C83.684578,100.366264 83.842941,102.185913 84.001846,104.465797 
	C84.001831,108.616264 84.001266,112.306496 83.753967,116.299858 
	C83.337143,118.739342 83.167046,120.875687 82.676483,123.022957 
	C81.806740,123.298264 81.257454,123.562653 80.708168,123.827042 
	C81.471146,124.214226 82.234116,124.601402 82.997665,125.366562 
	C82.999413,126.500938 83.000595,127.257332 83.006195,128.418732 
	C83.340973,131.214401 83.671341,133.605057 83.874649,136.098419 
	C83.574646,136.527802 83.658134,136.793015 83.998276,137.330811 
	C83.998085,138.110336 83.997665,138.555771 83.997253,139.001221 
	C82.227470,139.655380 80.457680,140.309540 78.345383,140.602005 
	C78.070404,139.483826 78.137917,138.727325 78.493484,137.750443 
	C80.309158,134.554611 81.278091,131.617325 78.154526,128.953705 
	C78.112846,128.950806 78.032707,128.974487 78.004486,128.675842 
	C77.676895,127.872353 77.377525,127.367508 76.790176,126.653839 
	C75.324364,126.327110 74.146553,126.209206 72.662216,125.812325 
	C70.567902,125.370964 68.772148,125.011276 66.993813,125.083069 
	C61.584396,125.301430 56.180523,125.960823 50.776688,125.937614 
	C43.886284,125.908020 36.998024,125.379112 30.108843,125.065430 
M81.534760,128.505096 
	C81.534760,128.505096 81.484688,128.526398 81.534760,128.505096 
z"/>
<path fill="#20180C" opacity="1.000000" stroke="none" 
	d="
M109.049080,30.999062 
	C113.238251,32.452911 115.212738,36.614330 113.297691,41.153866 
	C110.334038,48.179070 107.139786,53.234982 95.118538,52.039291 
	C91.198547,49.673653 88.098503,47.335983 84.996971,44.638168 
	C84.658836,43.186325 84.322174,42.094627 83.975945,40.622875 
	C83.680031,38.518372 83.393700,36.793926 83.107361,35.069481 
	C86.553131,29.852713 89.893608,24.698023 96.889877,23.488108 
	C101.823112,22.634966 106.781044,24.809044 108.537949,29.920444 
	C107.795135,30.312370 107.371780,30.336914 106.798454,30.013945 
	C103.576836,26.812784 99.989487,26.162195 95.652069,27.152159 
	C87.464439,30.517492 84.685493,36.702915 88.061005,43.221954 
	C91.034805,48.965172 98.382240,51.159180 104.408936,47.923817 
	C112.109688,43.744652 110.382294,37.321491 109.049080,30.999062 
z"/>
<path fill="#170D03" opacity="1.000000" stroke="none" 
	d="
M72.968735,126.091309 
	C74.146553,126.209206 75.324364,126.327110 76.756401,127.033798 
	C76.973549,128.126892 76.936470,128.631210 76.595505,129.083908 
	C75.885307,128.966492 75.479004,128.900681 74.893997,128.651581 
	C74.110016,128.556274 73.504745,128.644241 72.860229,128.754303 
	C72.820999,128.776398 72.741295,128.818298 72.546509,128.815430 
	C72.351723,128.812576 72.006828,128.993805 71.539444,128.949890 
	C60.378803,128.996933 49.685551,129.087860 38.580513,129.047394 
	C36.446789,128.955887 34.724850,128.995773 32.701874,128.908417 
	C31.968842,128.724350 31.536844,128.667526 30.810349,128.479187 
	C26.334055,130.098145 28.191484,133.172882 28.857449,136.261688 
	C29.113817,136.813232 29.354380,137.085983 29.723698,137.761581 
	C30.754951,138.446838 31.656332,138.971085 32.560116,138.975266 
	C45.797493,139.036423 59.035263,139.049866 72.272705,139.005463 
	C73.708405,139.000641 75.142662,138.565826 76.874146,138.281815 
	C76.874146,135.012573 76.874146,132.058563 77.163788,129.072052 
	C77.646530,129.017883 77.839615,128.996185 78.032707,128.974487 
	C78.032707,128.974487 78.112846,128.950806 78.101906,129.405365 
	C78.129120,132.563568 78.167274,135.267197 78.205429,137.970840 
	C78.137917,138.727325 78.070404,139.483826 77.979713,140.619476 
	C76.559570,141.328003 75.162598,141.657379 73.060371,141.722046 
	C67.212654,141.375610 62.070198,141.293869 56.492081,141.186447 
	C53.727871,141.175400 51.399323,141.190033 48.599846,141.147095 
	C42.749367,141.118118 37.369808,141.146698 31.990252,141.175262 
	C28.181904,141.551514 26.508165,139.949112 26.940058,136.037918 
	C27.280378,132.955963 27.337038,129.842682 28.119717,126.663620 
	C42.879364,126.690552 57.038940,126.807098 71.198753,126.868889 
	C71.787605,126.871452 72.378693,126.362144 72.968735,126.091309 
z"/>
<path fill="#2B3142" opacity="1.000000" stroke="none" 
	d="
M84.000702,115.996727 
	C84.001266,112.306496 84.001831,108.616264 84.001884,104.036530 
	C84.000816,101.430336 84.000259,99.713638 83.999695,97.996941 
	C84.013268,91.608688 84.026848,85.220436 84.020294,77.953911 
	C84.001579,73.050163 84.002983,69.024696 84.004395,64.999222 
	C84.670425,65.002502 85.336449,65.005791 86.416428,65.474442 
	C86.918571,90.949837 87.006775,115.959854 87.094986,140.969879 
	C86.122330,140.534515 85.149673,140.099167 84.087135,139.332520 
	C83.997665,138.555771 83.998085,138.110336 83.999680,137.080582 
	C84.001144,136.329422 84.001434,136.162582 84.001709,135.995728 
	C83.671341,133.605057 83.340973,131.214401 83.258591,128.094482 
	C83.671288,123.575737 83.835991,119.786232 84.000702,115.996727 
z"/>
<path fill="#1B2B43" opacity="1.000000" stroke="none" 
	d="
M80.995232,99.037582 
	C80.120598,102.378143 77.973846,103.957550 74.504143,103.997597 
	C60.075390,104.164124 45.647564,104.442886 31.218626,104.506683 
	C29.939060,104.512337 28.653942,103.262077 27.190857,102.300644 
	C27.010309,102.006157 27.010319,101.523788 27.317245,101.212959 
	C28.062401,100.253212 28.500628,99.604294 28.969002,98.680534 
	C29.243774,97.923965 29.488400,97.442245 29.918121,97.323792 
	C31.880707,98.466255 33.647030,99.889305 35.437492,99.920364 
	C47.212139,100.124542 58.992390,100.078415 70.769768,99.983841 
	C72.848297,99.967148 74.921928,99.339172 77.248283,98.995483 
	C77.665733,98.998421 77.832710,98.999367 78.374107,99.009552 
	C79.497421,99.025055 80.246330,99.031319 80.995232,99.037582 
z"/>
<path fill="#050302" opacity="1.000000" stroke="none" 
	d="
M87.554550,140.974289 
	C87.006775,115.959854 86.918571,90.949837 86.749435,65.477242 
	C86.686142,64.560753 86.703796,64.106827 86.753540,62.896400 
	C86.864494,60.425617 86.943352,58.711342 87.220993,57.132088 
	C87.667664,57.477009 87.867210,57.725697 88.012680,58.391174 
	C88.240150,60.208393 88.473358,61.647614 88.717049,63.549400 
	C88.716354,72.302788 88.705185,80.593597 88.589142,89.023247 
	C88.454803,89.274101 88.377686,89.400055 88.405540,89.495323 
	C88.468666,89.711243 88.583504,89.912048 88.692932,90.576469 
	C88.709282,95.662689 88.710014,100.291443 88.527328,105.253059 
	C88.465813,108.083633 88.587700,110.581329 88.719421,113.541992 
	C88.706818,120.634834 88.684395,127.264725 88.523232,134.088638 
	C88.467499,134.869568 88.550499,135.456482 88.759163,136.095566 
	C88.884834,136.147751 89.124802,136.019379 89.137138,136.365952 
	C90.098251,137.549301 91.047028,138.386078 92.107025,139.339752 
	C92.218262,139.456650 92.678749,139.477020 92.678749,139.477020 
	C92.678749,139.477020 93.023613,139.158844 93.419052,139.104797 
	C94.876358,139.097061 95.938210,139.143387 97.346252,139.411270 
	C108.790901,139.750702 119.889381,139.868576 131.194092,140.115356 
	C131.658463,140.448563 131.866394,140.695175 132.024139,140.984100 
	C117.354134,140.982300 102.684135,140.980499 87.554550,140.974289 
z"/>
<path fill="#160E06" opacity="1.000000" stroke="none" 
	d="
M132.426636,140.958801 
	C131.866394,140.695175 131.658463,140.448563 131.202805,139.901688 
	C131.005280,139.559128 131.014755,139.131271 131.301971,138.912247 
	C131.622971,135.129913 131.656754,131.566620 131.736145,127.563843 
	C131.793701,125.069191 131.805634,123.014008 132.147827,120.702850 
	C132.259369,115.646965 132.040634,110.847046 131.820297,105.592743 
	C131.819763,102.412605 131.820847,99.686859 132.125000,96.807938 
	C132.243561,95.440056 132.059067,94.225357 131.832245,92.657150 
	C129.059708,84.760162 122.726662,79.963707 118.114044,73.884743 
	C118.613930,73.427116 118.867149,73.128311 119.120361,72.829506 
	C123.410408,77.106857 128.105774,81.065323 131.824585,85.792099 
	C133.770798,88.265839 134.792511,92.069771 134.870316,95.305695 
	C135.197449,108.910080 135.083237,122.527702 134.916321,136.137863 
	C134.896606,137.744705 133.556915,139.335358 132.426636,140.958801 
z"/>
<path fill="#1F242D" opacity="1.000000" stroke="none" 
	d="
M140.006714,126.000053 
	C141.198715,125.003174 142.330978,123.239067 143.592941,123.140808 
	C149.385574,122.689774 155.275375,122.157669 161.003143,122.795868 
	C163.639633,123.089630 166.306442,125.686890 168.384140,127.804230 
	C171.348007,130.824600 174.178711,134.129654 176.323364,137.752884 
	C178.158707,140.853531 177.043762,143.274399 172.411316,142.668915 
	C172.002075,141.705902 172.006516,141.064865 172.013168,140.025711 
	C171.972778,139.368042 171.930176,139.108505 171.841782,138.510101 
	C168.249939,130.569244 163.148895,125.619614 153.885727,126.862762 
	C150.318054,127.341560 146.640182,126.999092 142.776245,126.801498 
	C141.695541,126.381470 140.851135,126.190758 140.006714,126.000053 
z"/>
<path fill="#040202" opacity="1.000000" stroke="none" 
	d="
M33.010773,154.997406 
	C31.376064,153.801102 29.741354,152.604782 28.106642,151.408478 
	C28.266729,150.944931 28.426817,150.481369 28.586905,150.017822 
	C73.739204,150.017822 118.891510,150.017822 164.516205,150.261993 
	C164.988617,150.506165 164.989716,150.949905 164.535095,150.963760 
	C160.383469,151.232162 156.686462,151.486710 152.673584,151.773911 
	C151.936035,151.782852 151.514343,151.759125 150.725204,151.537384 
	C130.182907,151.250000 110.008064,151.154709 89.833122,151.099396 
	C89.217888,151.097717 88.601509,151.512527 87.560165,151.767670 
	C85.427887,151.779144 83.721107,151.756119 81.657059,151.533386 
	C66.606209,151.231018 51.912670,151.113983 37.218906,151.068314 
	C36.487309,151.066040 35.753784,151.683594 34.983299,152.340759 
	C34.932858,153.108932 34.920280,153.548889 34.669151,154.112762 
	C33.957325,154.490265 33.484047,154.743835 33.010773,154.997406 
z"/>
<path fill="#19293D" opacity="1.000000" stroke="none" 
	d="
M77.999695,99.000305 
	C77.832710,98.999367 77.665733,98.998421 77.194763,98.530075 
	C76.850304,74.077492 76.804482,50.092304 76.773636,26.107096 
	C76.767014,20.958258 75.659241,20.085379 70.878197,21.902004 
	C66.548889,23.546991 62.299141,25.401384 58.009846,26.879848 
	C58.003994,26.407169 58.002617,26.218086 58.001244,26.029003 
	C60.304150,22.442038 72.082748,16.738495 75.851814,17.508909 
	C78.549911,18.060411 78.814079,20.233528 78.668556,22.946827 
	C78.377792,23.930868 78.192497,24.460850 78.006409,25.460064 
	C78.003639,50.286297 78.001663,74.643303 77.999695,99.000305 
z"/>
<path fill="#0B080E" opacity="1.000000" stroke="none" 
	d="
M78.120636,121.026199 
	C77.617989,121.635269 77.115349,122.244339 76.299896,122.622200 
	C75.983681,122.032059 75.980263,121.673126 76.174797,121.120300 
	C76.506187,120.595360 76.639610,120.264320 76.852188,119.493553 
	C76.914680,116.405495 76.898018,113.757149 76.797943,110.721497 
	C75.374588,109.892159 74.037338,109.075722 72.694298,109.066093 
	C59.362804,108.970558 46.030174,108.978210 32.698505,109.060944 
	C31.521154,109.068253 30.348373,109.812256 29.022043,110.492699 
	C28.551975,111.538666 28.233334,112.306030 27.914688,113.073395 
	C27.914686,113.073395 27.457714,113.030373 27.219872,112.611855 
	C26.949682,111.131577 26.917336,110.069824 26.884989,109.008064 
	C27.390814,108.686501 27.896641,108.364929 28.704350,107.976700 
	C30.786430,107.621689 32.565243,107.093681 34.347046,107.083389 
	C47.107323,107.009735 59.869270,107.132462 72.628265,106.984436 
	C76.481911,106.939728 78.632515,108.295715 78.704117,112.919922 
	C78.365860,116.088539 78.243248,118.557373 78.120636,121.026199 
z"/>
<path fill="#242023" opacity="1.000000" stroke="none" 
	d="
M78.374107,99.009552 
	C78.001663,74.643303 78.003639,50.286297 78.263794,25.452137 
	C78.693649,24.969782 78.865311,24.964586 79.036972,24.959393 
	C79.352821,27.364101 79.668678,29.768810 79.832520,32.946983 
	C79.783394,37.481163 79.886284,41.241879 79.972610,45.380543 
	C79.966682,47.840282 79.977325,49.922070 79.987968,52.003860 
	C79.663513,65.277023 79.259735,78.549194 79.094009,91.824341 
	C79.066925,93.993752 80.090027,96.176270 80.811493,98.695160 
	C80.246330,99.031319 79.497421,99.025055 78.374107,99.009552 
z"/>
<path fill="#120D0B" opacity="1.000000" stroke="none" 
	d="
M119.027176,72.509560 
	C118.867149,73.128311 118.613930,73.427116 117.807289,73.755211 
	C110.862373,69.508080 104.470879,65.231651 97.839569,60.706390 
	C94.872330,59.726337 92.144905,58.995125 89.070213,58.187309 
	C88.488098,58.078194 88.253258,58.045685 88.018425,58.013172 
	C87.867210,57.725697 87.667664,57.477009 86.996712,57.112392 
	C86.573639,56.957680 86.126595,56.906391 86.126595,56.906391 
	C86.136307,56.209064 86.146019,55.511738 86.372108,54.452492 
	C86.588486,54.090569 86.997948,54.058002 87.396591,54.075462 
	C90.155167,54.464085 92.515114,54.835247 94.875053,55.206413 
	C101.683937,59.524685 108.539116,63.772881 115.265213,68.216454 
	C116.725670,69.181297 117.723228,70.846817 119.027176,72.509560 
z"/>
<path fill="#1E1F26" opacity="1.000000" stroke="none" 
	d="
M139.754990,126.321236 
	C140.851135,126.190758 141.695541,126.381470 142.738968,127.135582 
	C142.813278,128.129303 142.688583,128.559631 142.371765,129.331268 
	C142.083206,132.459137 141.986755,135.245697 141.925842,138.398254 
	C142.822968,139.285339 143.684586,139.806442 144.738129,140.321625 
	C145.189941,140.330902 145.435669,140.397949 146.143890,140.665741 
	C154.089584,140.592316 161.558640,140.370010 169.343231,140.102280 
	C170.082504,140.024673 170.506256,139.992493 171.196838,140.084106 
	C171.646088,140.279892 171.828506,140.351852 172.010941,140.423828 
	C172.006516,141.064865 172.002075,141.705902 171.997086,142.667114 
	C163.734940,142.993835 155.454391,142.663879 147.218597,143.128159 
	C141.950668,143.425140 139.423386,141.642181 139.371750,136.449158 
	C139.339249,133.181000 139.454361,129.911377 139.754990,126.321236 
z"/>
<path fill="#1F170B" opacity="1.000000" stroke="none" 
	d="
M76.966324,175.987869 
	C67.349876,172.240906 57.733425,168.493942 48.308521,164.430588 
	C49.661587,163.809250 50.823109,163.504318 52.329659,163.292831 
	C63.136200,170.241470 74.936707,173.198181 87.168037,175.426117 
	C87.545052,176.069382 87.819740,176.485031 87.694489,176.914246 
	C83.851814,176.614502 80.409065,176.301193 76.966324,175.987869 
z"/>
<path fill="#0A090C" opacity="1.000000" stroke="none" 
	d="
M77.269058,176.234650 
	C80.409065,176.301193 83.851814,176.614502 88.010010,176.912903 
	C89.484947,176.623383 90.244423,176.348785 91.303146,175.952805 
	C91.752373,175.677032 91.902351,175.522644 92.493179,175.502991 
	C98.038834,175.776733 103.143646,175.915726 108.656303,176.295593 
	C111.397987,176.070190 113.731827,175.603912 116.473846,175.100677 
	C119.158066,174.629868 121.434090,174.195999 124.030296,173.898621 
	C125.217125,174.336548 126.083763,174.637970 126.967026,174.959259 
	C126.983643,174.979111 127.017273,175.018524 127.017273,175.018524 
	C126.106407,175.643829 125.256638,176.688904 124.275543,176.831696 
	C108.697083,179.099121 93.108589,180.482468 77.269058,176.234650 
z"/>
<path fill="#050103" opacity="1.000000" stroke="none" 
	d="
M75.976837,121.314194 
	C75.980263,121.673126 75.983681,122.032059 75.985497,122.659248 
	C62.217480,122.953033 48.450760,122.939865 34.685009,123.049118 
	C32.794518,123.064125 30.908855,123.687492 28.807714,124.369667 
	C28.345718,123.259293 28.096964,121.808449 28.220898,120.121857 
	C29.035734,120.199684 29.477886,120.513260 30.153439,120.980942 
	C30.564796,121.190712 30.742756,121.246368 31.114975,121.446716 
	C31.900726,121.492699 32.492218,121.393982 33.546028,121.272591 
	C47.997849,121.271339 61.987347,121.292770 75.976837,121.314194 
z"/>
<path fill="#181A29" opacity="1.000000" stroke="none" 
	d="
M29.733023,96.960518 
	C29.488400,97.442245 29.243774,97.923965 28.726381,98.353767 
	C28.302475,89.589783 28.211031,80.876015 27.961355,72.166779 
	C27.892534,69.766220 27.351727,67.379189 27.027489,64.985954 
	C27.023752,62.624969 27.020018,60.263985 27.142618,57.351082 
	C27.433851,56.465199 27.349037,56.190372 27.014507,55.974686 
	C27.014307,55.544266 27.014105,55.113850 27.336790,54.350632 
	C28.087177,54.013855 28.514679,54.009872 29.210114,54.018631 
	C29.656315,54.026478 29.834578,54.021580 30.029549,54.484070 
	C29.941847,68.954475 29.837435,82.957497 29.733023,96.960518 
z"/>
<path fill="#2A333E" opacity="1.000000" stroke="none" 
	d="
M49.070770,141.204681 
	C51.399323,141.190033 53.727871,141.175400 56.651611,141.519440 
	C59.830276,142.253998 62.413750,142.629913 64.997223,143.005814 
	C63.838608,143.667770 62.696381,144.868225 61.518707,144.904053 
	C54.015652,145.132370 46.504459,145.079056 38.996738,145.178513 
	C37.208855,145.202209 35.419006,145.572723 33.642033,145.498215 
	C33.296364,145.483734 33.006195,144.145523 33.312363,143.203796 
	C36.752945,142.990662 39.596130,143.220154 42.382545,142.920959 
	C44.647270,142.677780 46.843925,141.800659 49.070770,141.204681 
z"/>
<path fill="#13100E" opacity="1.000000" stroke="none" 
	d="
M72.662216,125.812325 
	C72.378693,126.362144 71.787605,126.871452 71.198753,126.868889 
	C57.038940,126.807098 42.879364,126.690552 28.386295,126.357933 
	C28.592047,125.907814 29.131245,125.683685 29.889643,125.262497 
	C36.998024,125.379112 43.886284,125.908020 50.776688,125.937614 
	C56.180523,125.960823 61.584396,125.301430 66.993813,125.083069 
	C68.772148,125.011276 70.567902,125.370964 72.662216,125.812325 
z"/>
<path fill="#2A1F0B" opacity="1.000000" stroke="none" 
	d="
M155.957764,164.006332 
	C148.916428,168.450928 141.763077,172.613510 132.398010,173.032013 
	C131.437805,172.972366 131.217606,172.952042 131.274872,172.707123 
	C134.714310,170.746353 139.346497,171.676010 141.285004,167.181076 
	C141.717590,167.132843 141.893707,167.159927 142.281158,167.386780 
	C143.353760,167.145386 144.215027,166.704224 145.187439,165.931091 
	C148.830292,164.328827 152.361984,163.058517 155.908096,162.157745 
	C155.934250,163.020294 155.945999,163.513321 155.957764,164.006332 
z"/>
<path fill="#19273A" opacity="1.000000" stroke="none" 
	d="
M57.700485,25.895809 
	C58.002617,26.218086 58.003994,26.407169 57.801460,27.130596 
	C51.770641,32.206364 45.943737,36.747791 40.055649,40.965687 
	C39.662300,40.090191 39.330128,39.538227 38.997955,38.986263 
	C44.352440,34.542938 49.683308,30.070257 55.104198,25.709482 
	C55.560104,25.342739 56.620281,25.727169 57.700485,25.895809 
z"/>
<path fill="#0F0C0D" opacity="1.000000" stroke="none" 
	d="
M156.308609,163.950729 
	C155.945999,163.513321 155.934250,163.020294 156.033447,161.870575 
	C157.120102,160.479416 158.095810,159.744995 159.422211,158.992538 
	C161.801041,157.596634 163.829178,156.218735 166.172424,154.751923 
	C166.319946,153.699921 166.152344,152.736832 165.846497,151.606308 
	C165.492264,151.241333 165.252747,151.078339 164.989716,150.949905 
	C164.989716,150.949905 164.988617,150.506165 164.982956,150.284851 
	C167.731293,150.063538 170.485275,150.063538 174.804031,150.063538 
	C169.044922,156.805359 162.928986,160.446564 156.308609,163.950729 
z"/>
<path fill="#120E09" opacity="1.000000" stroke="none" 
	d="
M51.984627,163.199371 
	C50.823109,163.504318 49.661587,163.809250 48.167332,164.110916 
	C42.957073,161.288040 38.079552,158.468460 33.106400,155.323120 
	C33.484047,154.743835 33.957325,154.490265 34.788078,154.375305 
	C35.783699,154.740738 36.421844,154.967560 37.355309,155.266891 
	C38.415913,155.883575 39.181194,156.427719 40.077374,157.279022 
	C41.221497,157.894638 42.234722,158.203079 43.284676,158.626694 
	C43.321400,158.741882 43.560528,158.777817 43.655090,158.879959 
	C43.749649,158.982101 44.027435,159.000336 44.198502,159.305847 
	C46.907917,160.807358 49.446270,162.003372 51.984627,163.199371 
z"/>
<path fill="#28313C" opacity="1.000000" stroke="none" 
	d="
M26.522278,109.022537 
	C26.917336,110.069824 26.949682,111.131577 26.991291,112.591385 
	C26.002821,114.149750 24.820360,115.201889 24.059658,116.500992 
	C23.308985,117.782982 22.985003,119.314812 22.473824,120.737045 
	C21.761065,120.458778 20.573469,120.336830 20.421127,119.874077 
	C19.880148,118.230827 18.832157,115.819473 19.540598,114.884857 
	C21.284071,112.584732 23.896547,110.943314 26.522278,109.022537 
z"/>
<path fill="#CCAD49" opacity="1.000000" stroke="none" 
	d="
M108.949280,30.840626 
	C110.382294,37.321491 112.109688,43.744652 104.167755,47.874428 
	C103.356552,47.318153 103.121971,46.731667 103.144318,45.883144 
	C108.631111,41.736820 108.737572,41.185780 106.224579,31.848923 
	C106.593834,31.251200 106.771133,30.806328 106.948425,30.361458 
	C107.371780,30.336914 107.795135,30.312370 108.536018,30.297771 
	C108.853546,30.307714 108.849480,30.682190 108.949280,30.840626 
z"/>
<path fill="#28313C" opacity="1.000000" stroke="none" 
	d="
M95.020500,54.986004 
	C92.515114,54.835247 90.155167,54.464085 87.345589,53.717487 
	C85.929886,51.894356 84.963814,50.446659 83.998459,48.638706 
	C84.332268,47.185070 84.665359,46.091690 84.998451,44.998314 
	C88.098503,47.335983 91.198547,49.673653 94.669853,52.059093 
	C95.082718,52.993111 95.124336,53.879353 95.020500,54.986004 
z"/>
<path fill="#162132" opacity="1.000000" stroke="none" 
	d="
M38.707569,39.152374 
	C39.330128,39.538227 39.662300,40.090191 39.905926,41.256943 
	C36.935883,45.272617 34.054386,48.673496 30.818001,52.049984 
	C29.989983,52.029236 29.516851,52.032887 29.033150,51.757061 
	C29.012512,51.291412 29.002445,51.105240 28.992378,50.919064 
	C32.133980,47.052204 35.275581,43.185345 38.707569,39.152374 
z"/>
<path fill="#28313C" opacity="1.000000" stroke="none" 
	d="
M79.989174,45.002594 
	C79.886284,41.241879 79.783394,37.481163 79.835342,33.358757 
	C80.857559,33.555351 81.724945,34.113632 82.849838,34.870697 
	C83.393700,36.793926 83.680031,38.518372 83.729050,40.825405 
	C82.660141,42.605289 81.828545,43.802582 80.745003,45.000389 
	C80.325104,45.001461 80.157143,45.002026 79.989174,45.002594 
z"/>
<path fill="#1E242F" opacity="1.000000" stroke="none" 
	d="
M65.356033,143.160522 
	C62.413750,142.629913 59.830276,142.253998 57.087273,141.545105 
	C62.070198,141.293869 67.212654,141.375610 72.681808,141.710159 
	C71.144562,145.473404 68.319298,143.798874 65.356033,143.160522 
z"/>
<path fill="#251F21" opacity="1.000000" stroke="none" 
	d="
M27.017132,65.455765 
	C27.351727,67.379189 27.892534,69.766220 27.961355,72.166779 
	C28.211031,80.876015 28.302475,89.589783 28.696234,98.628609 
	C28.500628,99.604294 28.062401,100.253212 27.314583,100.971786 
	C27.005585,89.336159 27.006178,77.630867 27.017132,65.455765 
z"/>
<path fill="#1E242F" opacity="1.000000" stroke="none" 
	d="
M48.599846,141.147110 
	C46.843925,141.800659 44.647270,142.677780 42.382545,142.920959 
	C39.596130,143.220154 36.752945,142.990662 33.467804,142.986969 
	C32.751595,142.528809 32.501881,142.073349 32.121208,141.396576 
	C37.369808,141.146698 42.749367,141.118118 48.599846,141.147110 
z"/>
<path fill="#AA9039" opacity="1.000000" stroke="none" 
	d="
M29.920038,120.826828 
	C29.477886,120.513260 29.035734,120.199684 28.336447,119.786423 
	C28.078020,117.752960 28.076731,115.819199 27.995066,113.479416 
	C28.233334,112.306030 28.551975,111.538666 29.199759,110.494400 
	C29.528898,110.217499 29.884584,110.216934 29.929878,110.430695 
	C29.975174,110.644463 30.068577,111.074638 30.067654,111.431274 
	C30.125967,112.497246 30.185205,113.206581 30.201897,114.314377 
	C30.174416,115.512871 30.189484,116.312889 30.163475,117.406464 
	C30.101034,118.292252 30.079668,118.884476 30.013981,119.813232 
	C29.953121,120.375450 29.936581,120.601143 29.920038,120.826828 
z"/>
<path fill="#0A090C" opacity="1.000000" stroke="none" 
	d="
M130.997391,172.931702 
	C131.217606,172.952042 131.437805,172.972366 131.991272,173.028656 
	C130.802734,173.714462 129.280914,174.364288 127.388184,175.016327 
	C127.017273,175.018524 126.983643,174.979111 127.064362,174.623627 
	C128.429184,173.822647 129.713287,173.377167 130.997391,172.931702 
z"/>
<path fill="#251F21" opacity="1.000000" stroke="none" 
	d="
M28.720367,51.096695 
	C29.002445,51.105240 29.012512,51.291412 29.015747,52.084686 
	C28.986668,53.129818 28.964422,53.567856 28.942177,54.005890 
	C28.514679,54.009872 28.087177,54.013855 27.339520,54.027828 
	C27.495693,53.116657 27.972025,52.195492 28.720367,51.096695 
z"/>
<path fill="#1B2B43" opacity="1.000000" stroke="none" 
	d="
M79.215759,24.798412 
	C78.865311,24.964586 78.693649,24.969782 78.264587,24.982904 
	C78.192497,24.460850 78.377792,23.930868 78.775192,23.211109 
	C79.123039,23.560032 79.258797,24.098732 79.215759,24.798412 
z"/>
<path fill="#1E242F" opacity="1.000000" stroke="none" 
	d="
M28.442656,143.834198 
	C28.472498,143.817596 28.412813,143.850830 28.442656,143.834198 
z"/>
<path fill="#251F21" opacity="1.000000" stroke="none" 
	d="
M27.011444,56.235626 
	C27.349037,56.190372 27.433851,56.465199 27.144527,56.908760 
	C27.016193,56.844429 27.012287,56.670502 27.011444,56.235626 
z"/>
<path fill="#282F39" opacity="1.000000" stroke="none" 
	d="
M79.972610,45.380543 
	C80.157143,45.002026 80.325104,45.001461 81.067741,45.086094 
	C82.427528,46.447182 83.212631,47.723072 83.997742,48.998962 
	C84.963814,50.446659 85.929886,51.894356 86.946945,53.700027 
	C86.997948,54.058002 86.588486,54.090569 86.385223,54.103989 
	C84.307518,53.333466 82.433075,52.549522 80.273300,51.884720 
	C79.977325,49.922070 79.966682,47.840282 79.972610,45.380543 
z"/>
<path fill="#2B3142" opacity="1.000000" stroke="none" 
	d="
M85.827881,57.087021 
	C86.126595,56.906391 86.573639,56.957680 86.797928,56.977371 
	C86.943352,58.711342 86.864494,60.425617 86.692406,62.559830 
	C80.918808,62.072975 83.713905,59.578545 85.827881,57.087021 
z"/>
<path fill="#222733" opacity="1.000000" stroke="none" 
	d="
M78.448105,120.952072 
	C78.243248,118.557373 78.365860,116.088539 78.727264,113.303925 
	C79.641045,115.635902 82.394653,118.333839 78.448105,120.952072 
z"/>
<path fill="#222733" opacity="1.000000" stroke="none" 
	d="
M78.493484,137.750443 
	C78.167274,135.267197 78.129120,132.563568 78.143585,129.408264 
	C81.278091,131.617325 80.309158,134.554611 78.493484,137.750443 
z"/>
<path fill="#282C35" opacity="1.000000" stroke="none" 
	d="
M83.750534,65.320892 
	C84.002983,69.024696 84.001579,73.050163 83.999847,77.539108 
	C83.831902,73.882576 83.664284,69.762573 83.750534,65.320892 
z"/>
<path fill="#282C35" opacity="1.000000" stroke="none" 
	d="
M83.753967,116.299858 
	C83.835991,119.786232 83.671288,123.575737 83.254181,127.689484 
	C83.000595,127.257332 82.999413,126.500938 82.997284,125.037216 
	C82.996529,123.890602 82.996742,123.451324 82.996948,123.012039 
	C83.167046,120.875687 83.337143,118.739342 83.753967,116.299858 
z"/>
<path fill="#222733" opacity="1.000000" stroke="none" 
	d="
M82.676483,123.022957 
	C82.996742,123.451324 82.996529,123.890602 82.996704,124.659241 
	C82.234116,124.601402 81.471146,124.214226 80.708168,123.827042 
	C81.257454,123.562653 81.806740,123.298264 82.676483,123.022957 
z"/>
<path fill="#282C35" opacity="1.000000" stroke="none" 
	d="
M83.762962,98.271774 
	C84.000259,99.713638 84.000816,101.430336 84.001343,103.576294 
	C83.842941,102.185913 83.684578,100.366264 83.762962,98.271774 
z"/>
<path fill="#13100E" opacity="1.000000" stroke="none" 
	d="
M76.899399,129.135513 
	C76.936470,128.631210 76.973549,128.126892 77.044388,127.242630 
	C77.377525,127.367508 77.676895,127.872353 78.004486,128.675842 
	C77.839615,128.996185 77.646530,129.017883 77.222702,129.036865 
	C76.991974,129.034164 76.899399,129.135513 76.899399,129.135513 
z"/>
<path fill="#282C35" opacity="1.000000" stroke="none" 
	d="
M83.874649,136.098419 
	C84.001434,136.162582 84.001144,136.329422 83.999458,136.746521 
	C83.658134,136.793015 83.574646,136.527802 83.874649,136.098419 
z"/>
<path fill="#222733" opacity="1.000000" stroke="none" 
	d="
M81.509720,128.515747 
	C81.484688,128.526398 81.534760,128.505096 81.509720,128.515747 
z"/>
<path fill="#B79839" opacity="1.000000" stroke="none" 
	d="
M102.887390,46.145180 
	C103.121971,46.731667 103.356552,47.318153 103.832306,47.954025 
	C98.382240,51.159180 91.034805,48.965172 88.061005,43.221954 
	C84.685493,36.702915 87.464439,30.517492 95.643875,27.488232 
	C95.968628,28.520800 95.941284,29.192747 95.724640,30.035374 
	C91.768990,30.425106 90.318848,33.329582 90.283577,36.192127 
	C90.250473,38.878716 90.989273,42.812851 92.814095,43.992321 
	C95.509590,45.734566 99.467216,45.524113 102.887390,46.145180 
z"/>
<path fill="#C7AA44" opacity="1.000000" stroke="none" 
	d="
M95.913940,29.864695 
	C95.941284,29.192747 95.968628,28.520800 96.004181,27.512779 
	C99.989487,26.162195 103.576836,26.812784 106.798454,30.013943 
	C106.771133,30.806328 106.593834,31.251200 105.893890,31.699482 
	C102.334824,30.493286 99.625458,27.601004 95.913940,29.864695 
z"/>
<path fill="#252E35" opacity="1.000000" stroke="none" 
	d="
M83.998459,48.638706 
	C83.212631,47.723072 82.427528,46.447182 81.319687,45.085587 
	C81.828545,43.802582 82.660141,42.605289 83.738632,41.205463 
	C84.322174,42.094627 84.658836,43.186325 84.996971,44.638168 
	C84.665359,46.091690 84.332268,47.185070 83.998459,48.638706 
z"/>
<path fill="#D4AB31" opacity="1.000000" stroke="none" 
	d="
M33.002907,129.035675 
	C34.724850,128.995773 36.446789,128.955887 38.490704,129.362656 
	C37.718185,130.436584 36.623695,131.063858 35.013069,131.986938 
	C46.098846,131.986938 56.563805,131.896515 67.023796,132.083664 
	C68.606918,132.112000 70.166931,133.431961 71.737633,134.154480 
	C70.226555,134.769028 68.723465,135.891846 67.203102,135.915726 
	C57.236588,136.072311 47.265907,136.038712 37.297703,135.946457 
	C35.406582,135.928970 33.520451,135.371552 31.479797,135.038406 
	C31.672007,132.987152 31.808470,131.530823 32.153713,129.934082 
	C32.637642,129.593109 32.851112,129.340439 33.002907,129.035675 
z"/>
<path fill="#E2BC43" opacity="1.000000" stroke="none" 
	d="
M31.944933,130.074478 
	C31.808470,131.530823 31.672007,132.987152 31.479797,135.038406 
	C33.520451,135.371552 35.406582,135.928970 37.297703,135.946457 
	C47.265907,136.038712 57.236588,136.072311 67.203102,135.915726 
	C68.723465,135.891846 70.226555,134.769028 71.737633,134.154480 
	C70.166931,133.431961 68.606918,132.112000 67.023796,132.083664 
	C56.563805,131.896515 46.098846,131.986938 35.013069,131.986938 
	C36.623695,131.063858 37.718185,130.436584 38.902485,129.494049 
	C49.685551,129.087860 60.378803,128.996933 71.557098,129.201004 
	C72.331367,129.632156 72.620605,129.768295 73.213272,130.167511 
	C73.716438,132.631943 73.916176,134.833313 74.145325,137.358719 
	C58.782780,137.358719 44.188862,137.358719 29.594944,137.358719 
	C29.354380,137.085983 29.113817,136.813232 29.132217,136.074631 
	C29.593452,133.737335 29.795723,131.865906 30.323120,129.996185 
	C31.080475,130.023422 31.512705,130.048950 31.944933,130.074478 
z"/>
<path fill="#A3882F" opacity="1.000000" stroke="none" 
	d="
M29.723700,137.761581 
	C44.188862,137.358719 58.782780,137.358719 74.145325,137.358719 
	C73.916176,134.833313 73.716438,132.631943 73.213196,129.889465 
	C72.853561,129.171646 72.797424,128.994980 72.741295,128.818298 
	C72.741295,128.818298 72.820999,128.776398 73.217377,128.844131 
	C74.100060,128.886200 74.586380,128.860535 75.072693,128.834869 
	C75.479004,128.900681 75.885307,128.966492 76.595505,129.083908 
	C76.899399,129.135513 76.991974,129.034164 76.933060,129.069366 
	C76.874146,132.058563 76.874146,135.012573 76.874146,138.281815 
	C75.142662,138.565826 73.708405,139.000641 72.272705,139.005463 
	C59.035263,139.049866 45.797493,139.036423 32.560116,138.975266 
	C31.656332,138.971085 30.754951,138.446838 29.723700,137.761581 
z"/>
<path fill="#554715" opacity="1.000000" stroke="none" 
	d="
M29.997993,129.994476 
	C29.795723,131.865906 29.593452,133.737335 29.116413,135.795837 
	C28.191484,133.172882 26.334055,130.098145 30.568439,128.667206 
	C30.413351,129.322678 30.205671,129.658585 29.997993,129.994476 
z"/>
<path fill="#BB973B" opacity="1.000000" stroke="none" 
	d="
M30.323120,129.996185 
	C30.205671,129.658585 30.413351,129.322678 30.862938,128.798752 
	C31.536844,128.667526 31.968842,128.724350 32.701874,128.908417 
	C32.851112,129.340439 32.637642,129.593109 32.153713,129.934082 
	C31.512705,130.048950 31.080475,130.023422 30.323120,129.996185 
z"/>
<path fill="#554715" opacity="1.000000" stroke="none" 
	d="
M74.893997,128.651581 
	C74.586380,128.860535 74.100060,128.886200 73.256607,128.822052 
	C73.504745,128.644241 74.110016,128.556274 74.893997,128.651581 
z"/>
<path fill="#554715" opacity="1.000000" stroke="none" 
	d="
M72.546509,128.815430 
	C72.797424,128.994980 72.853561,129.171646 72.909760,129.626373 
	C72.620605,129.768295 72.331367,129.632156 72.024483,129.244904 
	C72.006828,128.993805 72.351723,128.812576 72.546509,128.815430 
z"/>
<path fill="#1B77EE" opacity="1.000000" stroke="none" 
	d="
M31.172886,52.074379 
	C34.054386,48.673496 36.935883,45.272617 39.967102,41.580475 
	C45.943737,36.747791 51.770641,32.206364 57.805931,27.414192 
	C62.299141,25.401384 66.548889,23.546991 70.878197,21.902004 
	C75.659241,20.085379 76.767014,20.958258 76.773636,26.107096 
	C76.804482,50.092304 76.850304,74.077492 76.944290,98.528084 
	C74.921928,99.339172 72.848297,99.967148 70.769768,99.983841 
	C58.992390,100.078415 47.212139,100.124542 35.437492,99.920364 
	C33.647030,99.889305 31.880707,98.466255 29.918121,97.323792 
	C29.837435,82.957497 29.941847,68.954475 30.283401,54.326317 
	C30.737991,53.158909 30.955439,52.616646 31.172886,52.074379 
z"/>
<path fill="#AA8D36" opacity="1.000000" stroke="none" 
	d="
M131.690521,128.003311 
	C131.656754,131.566620 131.622971,135.129913 130.837677,138.835037 
	C119.057457,139.047806 108.028763,139.118759 97.000069,139.189713 
	C95.938210,139.143387 94.876358,139.097061 93.157471,139.047516 
	C92.332222,139.103821 92.164009,139.163330 91.995796,139.222855 
	C91.047028,138.386078 90.098251,137.549301 89.336227,136.468185 
	C89.821938,136.473251 90.120903,136.722656 90.821274,137.020401 
	C91.492020,137.074036 91.761368,137.079346 92.496216,137.073059 
	C105.297791,137.056198 117.633865,137.050934 130.250046,137.039413 
	C130.916946,134.023193 131.303726,131.013260 131.690521,128.003311 
z"/>
<path fill="#6D5609" opacity="1.000000" stroke="none" 
	d="
M90.419868,136.972061 
	C90.120903,136.722656 89.821938,136.473251 89.323883,136.121613 
	C89.124802,136.019379 88.884834,136.147751 88.852219,135.742218 
	C88.767059,134.855988 88.714508,134.375290 88.661964,133.894608 
	C88.684395,127.264725 88.706818,120.634834 88.811699,113.095383 
	C88.833015,109.763939 88.771881,107.342064 88.710754,104.920189 
	C88.710014,100.291443 88.709282,95.662689 88.745544,90.268250 
	C88.753036,89.296516 88.723526,89.090469 88.694016,88.884415 
	C88.705185,80.593597 88.716354,72.302788 88.805649,63.130390 
	C89.082977,61.133999 89.282181,60.019188 89.587540,59.170799 
	C89.851601,59.995548 90.009499,60.553871 90.174530,61.459137 
	C90.183174,62.500385 90.184685,63.194687 90.121689,64.191071 
	C90.092270,64.696060 90.127365,64.898972 90.164490,65.564034 
	C90.250969,89.674812 90.335419,113.323441 90.419868,136.972061 
z"/>
<path fill="#2C1C01" opacity="1.000000" stroke="none" 
	d="
M97.346252,139.411270 
	C108.028763,139.118759 119.057457,139.047806 130.550446,139.054062 
	C131.014755,139.131271 131.005280,139.559128 130.996567,139.772797 
	C119.889381,139.868576 108.790901,139.750702 97.346252,139.411270 
z"/>
<path fill="#342A10" opacity="1.000000" stroke="none" 
	d="
M88.527336,105.253059 
	C88.771881,107.342064 88.833015,109.763939 88.801865,112.632423 
	C88.587700,110.581329 88.465813,108.083633 88.527336,105.253059 
z"/>
<path fill="#342A10" opacity="1.000000" stroke="none" 
	d="
M89.481384,58.904377 
	C89.282181,60.019188 89.082977,61.133999 88.795181,62.667820 
	C88.473358,61.647614 88.240150,60.208393 88.012680,58.391174 
	C88.253258,58.045685 88.488098,58.078194 89.099442,58.345856 
	C89.475929,58.581009 89.481384,58.904377 89.481384,58.904377 
z"/>
<path fill="#342A10" opacity="1.000000" stroke="none" 
	d="
M88.523232,134.088638 
	C88.714508,134.375290 88.767059,134.855988 88.726547,135.690033 
	C88.550499,135.456482 88.467499,134.869568 88.523232,134.088638 
z"/>
<path fill="#2C1C01" opacity="1.000000" stroke="none" 
	d="
M92.107025,139.339752 
	C92.164009,139.163330 92.332222,139.103821 92.762024,139.101562 
	C93.023613,139.158844 92.678749,139.477020 92.678749,139.477020 
	C92.678749,139.477020 92.218262,139.456650 92.107025,139.339752 
z"/>
<path fill="#342A10" opacity="1.000000" stroke="none" 
	d="
M88.589142,89.023247 
	C88.723526,89.090469 88.753036,89.296516 88.729927,89.810776 
	C88.583504,89.912048 88.468666,89.711243 88.405540,89.495323 
	C88.377686,89.400055 88.454803,89.274101 88.589142,89.023247 
z"/>
<path fill="#CCAE46" opacity="1.000000" stroke="none" 
	d="
M98.079384,60.955227 
	C104.470879,65.231651 110.862373,69.508080 117.560623,73.914040 
	C122.726662,79.963707 129.059708,84.760162 131.615158,92.637787 
	C131.440414,92.971931 131.005676,93.003433 130.748764,92.972153 
	C130.319809,92.927605 130.147781,92.914330 129.804016,92.614418 
	C123.450027,85.526283 117.710930,78.236870 110.938118,72.085625 
	C105.980225,67.582733 99.664185,64.575241 94.366409,60.917763 
	C95.879333,60.941284 96.979362,60.948254 98.079384,60.955227 
z"/>
<path fill="#E0BA42" opacity="1.000000" stroke="none" 
	d="
M129.975754,92.901054 
	C130.147781,92.914330 130.319809,92.927605 130.761993,93.323540 
	C131.295395,94.791176 131.558670,95.876144 131.821945,96.961113 
	C131.820847,99.686859 131.819763,102.412605 131.583313,105.922348 
	C131.504486,111.457169 131.661026,116.207993 131.817566,120.958817 
	C131.805634,123.014008 131.793701,125.069191 131.736145,127.563843 
	C131.303726,131.013260 130.916946,134.023193 130.124725,136.822891 
	C129.514679,136.342194 129.262177,136.128311 128.975037,135.505692 
	C128.995209,123.890999 128.937531,112.740913 129.052979,101.592621 
	C129.083008,98.692558 129.653488,95.798088 129.975754,92.901054 
z"/>
<path fill="#AA8D36" opacity="1.000000" stroke="none" 
	d="
M132.147827,120.702850 
	C131.661026,116.207993 131.504486,111.457169 131.584930,106.376740 
	C132.040634,110.847046 132.259369,115.646965 132.147827,120.702850 
z"/>
<path fill="#AA8D36" opacity="1.000000" stroke="none" 
	d="
M132.125000,96.807938 
	C131.558670,95.876144 131.295395,94.791176 131.018890,93.354813 
	C131.005676,93.003433 131.440414,92.971931 131.657501,92.991295 
	C132.059067,94.225357 132.243561,95.440056 132.125000,96.807938 
z"/>
<path fill="#1C75E0" opacity="1.000000" stroke="none" 
	d="
M142.563904,128.989960 
	C142.688583,128.559631 142.813278,128.129303 142.975250,127.364899 
	C146.640182,126.999092 150.318054,127.341560 153.885727,126.862762 
	C163.148895,125.619614 168.249939,130.569244 171.617554,138.633240 
	C171.269409,139.383621 171.099716,139.671967 170.930023,139.960312 
	C170.506256,139.992493 170.082504,140.024673 168.890442,139.957794 
	C160.637161,140.078110 153.152206,140.297501 145.667252,140.516876 
	C145.435669,140.397949 145.189941,140.330902 144.604813,140.057434 
	C143.734955,139.197800 143.190308,138.596451 142.747055,137.552826 
	C142.753586,134.403687 142.658752,131.696823 142.563904,128.989960 
M167.249161,135.858093 
	C165.405304,135.858093 163.561432,135.858093 161.717575,135.858093 
	C161.867310,136.691452 162.017044,137.524811 162.166779,138.358154 
	C164.018372,137.684464 165.869980,137.010757 167.249161,135.858093 
z"/>
<path fill="#274366" opacity="1.000000" stroke="none" 
	d="
M171.196854,140.084106 
	C171.099716,139.671967 171.269409,139.383621 171.663330,138.972137 
	C171.930176,139.108505 171.972778,139.368042 172.013168,140.025711 
	C171.828506,140.351852 171.646088,140.279892 171.196854,140.084106 
z"/>
<path fill="#7F692D" opacity="1.000000" stroke="none" 
	d="
M37.059990,155.194366 
	C36.421844,154.967560 35.783699,154.740738 35.026627,154.251373 
	C34.920280,153.548889 34.932858,153.108932 35.449234,152.312439 
	C51.306797,151.881622 66.660561,151.807358 82.014328,151.733093 
	C83.721107,151.756119 85.427887,151.779144 88.022217,151.857544 
	C92.554016,151.944183 96.198235,151.978104 99.842499,152.006241 
	C115.571243,152.127670 131.300003,152.247406 146.663666,152.549713 
	C144.479614,152.819016 142.660706,152.981598 140.841721,152.982468 
	C107.956444,152.997955 75.071030,152.960983 42.186249,153.087769 
	C40.474812,153.094345 38.768623,154.460953 37.059990,155.194366 
z"/>
<path fill="#2D1E00" opacity="1.000000" stroke="none" 
	d="
M147.028763,152.367752 
	C131.300003,152.247406 115.571243,152.127670 99.842499,152.006241 
	C96.198235,151.978104 92.554016,151.944183 88.447723,151.823059 
	C88.601509,151.512527 89.217888,151.097717 89.833122,151.099396 
	C110.008064,151.154709 130.182907,151.250000 150.371002,151.652634 
	C149.909317,152.104416 149.434402,152.242920 148.638351,152.348312 
	C147.887741,152.332703 147.458252,152.350235 147.028763,152.367752 
z"/>
<path fill="#2D1E00" opacity="1.000000" stroke="none" 
	d="
M81.657059,151.533386 
	C66.660561,151.807358 51.306797,151.881622 35.487095,151.984192 
	C35.753784,151.683594 36.487309,151.066040 37.218906,151.068314 
	C51.912670,151.113983 66.606209,151.231018 81.657059,151.533386 
z"/>
<path fill="#7F692D" opacity="1.000000" stroke="none" 
	d="
M148.959473,152.381439 
	C149.434402,152.242920 149.909317,152.104416 150.738449,151.850662 
	C151.514343,151.759125 151.936035,151.782852 153.129913,151.862915 
	C157.929657,151.870743 161.957199,151.822250 165.984741,151.773758 
	C166.152344,152.736832 166.319946,153.699921 165.982025,154.417297 
	C163.825745,153.787857 162.192322,153.207199 160.520752,153.060059 
	C156.676865,152.721725 152.814392,152.594391 148.959473,152.381439 
z"/>
<path fill="#2D1E00" opacity="1.000000" stroke="none" 
	d="
M165.846497,151.606308 
	C161.957199,151.822250 157.929657,151.870743 153.445786,151.830261 
	C156.686462,151.486710 160.383469,151.232162 164.535095,150.963760 
	C165.252747,151.078339 165.492264,151.241333 165.846497,151.606308 
z"/>
<path fill="#54451D" opacity="1.000000" stroke="none" 
	d="
M29.884584,110.216934 
	C29.884584,110.216934 29.528898,110.217499 29.351183,110.215797 
	C30.348373,109.812256 31.521154,109.068253 32.698505,109.060944 
	C46.030174,108.978210 59.362804,108.970558 72.694298,109.066093 
	C74.037338,109.075722 75.374588,109.892159 76.500015,110.684555 
	C75.886536,111.001595 75.487579,110.968246 74.734848,110.705017 
	C59.548920,110.389069 44.716751,110.303001 29.884584,110.216934 
z"/>
<path fill="#62480B" opacity="1.000000" stroke="none" 
	d="
M30.153439,120.980942 
	C29.936581,120.601143 29.953121,120.375450 30.305809,119.956779 
	C31.075480,119.783089 31.509003,119.802383 32.409206,119.903915 
	C45.602737,119.917374 58.329586,119.848602 71.371956,119.808090 
	C72.108719,119.862541 72.529953,119.888725 73.332298,119.965454 
	C74.733284,119.988426 75.753159,119.960846 76.773041,119.933273 
	C76.639610,120.264320 76.506187,120.595360 76.174805,121.120300 
	C61.987347,121.292770 47.997849,121.271339 33.187405,121.201385 
	C31.884544,121.202583 31.402628,121.252296 30.920713,121.302017 
	C30.742756,121.246368 30.564796,121.190712 30.153439,120.980942 
z"/>
<path fill="#AA9039" opacity="1.000000" stroke="none" 
	d="
M76.852188,119.493546 
	C75.753159,119.960846 74.733284,119.988426 73.498077,119.747314 
	C73.538315,119.000275 73.793892,118.521919 74.034912,118.023163 
	C74.020355,118.002754 74.038147,118.041763 74.186913,117.941238 
	C74.389183,117.734840 74.514320,117.594330 74.482971,117.529495 
	C74.383240,117.323288 74.225235,117.145264 74.056656,116.682770 
	C73.993126,116.228020 73.962685,116.046852 73.940414,115.679108 
	C73.948593,115.492531 73.935806,115.119232 73.965546,114.728951 
	C74.002899,113.556160 74.010521,112.773643 74.007233,111.767136 
	C73.996323,111.543144 73.926193,111.100143 74.217972,111.067062 
	C74.702698,111.000946 74.895660,110.967918 75.088615,110.934898 
	C75.487579,110.968246 75.886536,111.001595 76.583427,111.071877 
	C76.898018,113.757149 76.914680,116.405495 76.852188,119.493546 
z"/>
<path fill="#AA8D36" opacity="1.000000" stroke="none" 
	d="
M97.839569,60.706390 
	C96.979362,60.948254 95.879333,60.941284 94.216896,60.898590 
	C93.654480,60.862862 93.351631,60.844490 92.950729,60.817757 
	C91.755692,60.898083 90.961540,61.005138 90.167397,61.112190 
	C90.009499,60.553871 89.851601,59.995548 89.587540,59.170799 
	C89.481384,58.904377 89.475929,58.581009 89.446701,58.422459 
	C92.144905,58.995125 94.872330,59.726337 97.839569,60.706390 
z"/>
<path fill="#274366" opacity="1.000000" stroke="none" 
	d="
M146.143890,140.665741 
	C153.152206,140.297501 160.637161,140.078110 168.574905,140.003220 
	C161.558640,140.370010 154.089584,140.592316 146.143890,140.665741 
z"/>
<path fill="#1D3D68" opacity="1.000000" stroke="none" 
	d="
M142.371765,129.331268 
	C142.658752,131.696823 142.753586,134.403687 142.559448,137.559937 
	C142.270447,138.009323 141.890320,138.032242 141.890320,138.032242 
	C141.986755,135.245697 142.083206,132.459137 142.371765,129.331268 
z"/>
<path fill="#274366" opacity="1.000000" stroke="none" 
	d="
M141.925842,138.398254 
	C141.890320,138.032242 142.270447,138.009323 142.458069,138.002228 
	C143.190308,138.596451 143.734955,139.197800 144.412903,140.063339 
	C143.684586,139.806442 142.822968,139.285339 141.925842,138.398254 
z"/>
<path fill="#D0A933" opacity="1.000000" stroke="none" 
	d="
M52.329659,163.292831 
	C49.446270,162.003372 46.907917,160.807358 44.405174,159.247833 
	C44.539433,158.683609 44.638081,158.482895 44.736725,158.282181 
	C44.344658,158.447388 43.952591,158.612610 43.560528,158.777817 
	C43.560528,158.777817 43.321400,158.741882 43.461201,158.276855 
	C44.760124,156.878891 45.909096,155.169739 47.080223,155.154419 
	C51.042530,155.102570 55.011353,155.905396 58.980083,155.926315 
	C76.969925,156.021210 94.960587,155.960190 113.280617,156.217850 
	C126.836632,156.610260 140.062912,156.751999 153.289581,156.829315 
	C153.856033,156.832642 154.425964,156.240875 154.993652,155.607819 
	C154.994904,154.864761 154.996780,154.440231 155.348267,154.057861 
	C157.193893,154.577591 158.689911,155.055176 160.394333,155.599289 
	C159.885864,156.910507 159.478683,157.960526 159.071503,159.010559 
	C158.095810,159.744995 157.120102,160.479416 156.019043,161.501038 
	C152.361984,163.058517 148.830292,164.328827 144.846771,165.936920 
	C143.619904,166.578812 142.844864,166.882904 142.069824,167.186996 
	C141.893707,167.159927 141.717590,167.132843 140.900284,167.138336 
	C134.841400,169.124542 129.423691,171.078125 123.711807,172.878906 
	C120.632889,173.167328 117.848137,173.608582 114.735069,173.786942 
	C105.384804,173.351486 96.362946,173.170929 87.340172,173.078674 
	C87.197990,173.077209 87.044701,174.160629 86.921204,174.859436 
	C86.945801,174.981094 87.065704,175.198486 87.065704,175.198486 
	C74.936707,173.198181 63.136200,170.241470 52.329659,163.292831 
z"/>
<path fill="#4C3F12" opacity="1.000000" stroke="none" 
	d="
M91.003906,176.074188 
	C90.244423,176.348785 89.484947,176.623383 88.409943,176.899323 
	C87.819740,176.485031 87.545052,176.069382 87.168037,175.426117 
	C87.065704,175.198486 86.945801,174.981094 87.320679,174.936615 
	C88.776817,174.949371 89.858078,175.006592 90.982620,175.314682 
	C91.018578,175.735077 91.011238,175.904633 91.003906,176.074188 
z"/>
<path fill="#E4B83D" opacity="1.000000" stroke="none" 
	d="
M90.939339,175.063828 
	C89.858078,175.006592 88.776817,174.949371 87.296082,174.814941 
	C87.044701,174.160629 87.197990,173.077209 87.340172,173.078674 
	C96.362946,173.170929 105.384804,173.351486 114.452393,173.855301 
	C113.983925,174.439178 113.469810,174.691803 112.635178,174.969818 
	C111.886322,175.012604 111.457977,175.030014 110.783478,174.975220 
	C110.042198,174.985138 109.547073,175.067291 108.784531,175.316681 
	C108.427559,175.674179 108.338005,175.864426 108.248451,176.054688 
	C103.143646,175.915726 98.038834,175.776733 92.344284,175.357941 
	C91.484894,174.955109 91.213158,174.950333 90.939339,175.063828 
z"/>
<path fill="#392D0E" opacity="1.000000" stroke="none" 
	d="
M124.005974,173.031723 
	C129.423691,171.078125 134.841400,169.124542 140.643829,167.213684 
	C139.346497,171.676010 134.714310,170.746353 131.274872,172.707123 
	C129.713287,173.377167 128.429184,173.822647 127.047745,174.603760 
	C126.083763,174.637970 125.217125,174.336548 124.095596,173.712463 
	C123.840714,173.389816 124.005974,173.031723 124.005974,173.031723 
z"/>
<path fill="#9D8029" opacity="1.000000" stroke="none" 
	d="
M123.711807,172.878906 
	C124.005974,173.031723 123.840714,173.389816 123.775406,173.575974 
	C121.434090,174.195999 119.158066,174.629868 116.086052,175.056427 
	C114.511940,175.014206 113.733826,174.979324 112.955704,174.944427 
	C113.469810,174.691803 113.983925,174.439178 114.780716,174.118195 
	C117.848137,173.608582 120.632889,173.167328 123.711807,172.878906 
z"/>
<path fill="#4C3F12" opacity="1.000000" stroke="none" 
	d="
M112.635178,174.969818 
	C113.733826,174.979324 114.511940,175.014206 115.677856,175.093369 
	C113.731827,175.603912 111.397987,176.070190 108.656303,176.295578 
	C108.338005,175.864426 108.427559,175.674179 109.017349,175.459290 
	C110.021599,175.305557 110.525620,175.176483 111.029640,175.047424 
	C111.457977,175.030014 111.886322,175.012604 112.635178,174.969818 
z"/>
<path fill="#9D8029" opacity="1.000000" stroke="none" 
	d="
M90.982620,175.314682 
	C91.213158,174.950333 91.484894,174.955109 91.903442,175.223175 
	C91.902351,175.522644 91.752373,175.677032 91.303146,175.952805 
	C91.011238,175.904633 91.018578,175.735077 90.982620,175.314682 
z"/>
<path fill="#2D2409" opacity="1.000000" stroke="none" 
	d="
M31.114975,121.446716 
	C31.402628,121.252296 31.884544,121.202583 32.725082,121.224060 
	C32.492218,121.393982 31.900726,121.492699 31.114975,121.446716 
z"/>
<path fill="#1B2B43" opacity="1.000000" stroke="none" 
	d="
M30.818001,52.049984 
	C30.955439,52.616646 30.737991,53.158909 30.266691,53.858929 
	C29.834578,54.021580 29.656315,54.026478 29.210114,54.018631 
	C28.964422,53.567856 28.986668,53.129818 29.026316,52.364159 
	C29.516851,52.032887 29.989983,52.029236 30.818001,52.049984 
z"/>
<path fill="#392D0E" opacity="1.000000" stroke="none" 
	d="
M142.281158,167.386780 
	C142.844864,166.882904 143.619904,166.578812 144.735626,166.268890 
	C144.215027,166.704224 143.353760,167.145386 142.281158,167.386780 
z"/>
<path fill="#B9952A" opacity="1.000000" stroke="none" 
	d="
M159.422211,158.992538 
	C159.478683,157.960526 159.885864,156.910507 160.394333,155.599289 
	C158.689911,155.055176 157.193893,154.577591 154.879730,154.049988 
	C132.897095,153.998901 111.732635,153.999802 90.568169,153.996124 
	C75.403175,153.993484 60.238171,153.972656 45.073208,153.991989 
	C42.839035,153.994843 40.110210,153.327530 39.946476,156.971863 
	C39.181194,156.427719 38.415913,155.883575 37.355312,155.266891 
	C38.768623,154.460953 40.474812,153.094345 42.186249,153.087769 
	C75.071030,152.960983 107.956444,152.997955 140.841721,152.982468 
	C142.660706,152.981598 144.479614,152.819016 146.663666,152.549713 
	C147.458252,152.350235 147.887741,152.332703 148.638351,152.348297 
	C152.814392,152.594391 156.676865,152.721725 160.520752,153.060059 
	C162.192322,153.207199 163.825745,153.787857 165.666901,154.506226 
	C163.829178,156.218735 161.801041,157.596634 159.422211,158.992538 
z"/>
<path fill="#E0BA4A" opacity="1.000000" stroke="none" 
	d="
M40.077374,157.279022 
	C40.110210,153.327530 42.839035,153.994843 45.073208,153.991989 
	C60.238171,153.972656 75.403175,153.993484 90.568169,153.996124 
	C111.732635,153.999802 132.897095,153.998901 154.530121,154.007843 
	C154.996780,154.440231 154.994904,154.864761 154.525360,155.618286 
	C144.774445,155.650467 135.492661,155.216919 126.207260,155.116531 
	C121.792038,155.068771 117.369934,155.655823 112.950951,155.955292 
	C94.960587,155.960190 76.969925,156.021210 58.980083,155.926315 
	C55.011353,155.905396 51.042530,155.102570 47.080223,155.154419 
	C45.909096,155.169739 44.760124,156.878891 43.424477,158.161682 
	C42.234722,158.203079 41.221497,157.894638 40.077374,157.279022 
z"/>
<path fill="#E0BA4A" opacity="1.000000" stroke="none" 
	d="
M43.655090,158.879959 
	C43.952591,158.612610 44.344658,158.447388 44.736725,158.282181 
	C44.638081,158.482895 44.539433,158.683609 44.234112,158.942322 
	C44.027435,159.000336 43.749649,158.982101 43.655090,158.879959 
z"/>
<path fill="#D1AA31" opacity="1.000000" stroke="none" 
	d="
M95.724640,30.035374 
	C99.625458,27.601004 102.334824,30.493286 105.701935,31.852333 
	C108.737572,41.185780 108.631111,41.736820 103.144318,45.883144 
	C99.467216,45.524113 95.509590,45.734566 92.814095,43.992321 
	C90.989273,42.812851 90.250473,38.878716 90.283577,36.192127 
	C90.318848,33.329582 91.768990,30.425106 95.724640,30.035374 
z"/>
<path fill="#D5AC31" opacity="1.000000" stroke="none" 
	d="
M73.932243,115.865685 
	C73.962685,116.046852 73.993126,116.228020 74.035004,116.953629 
	C74.043671,117.679306 74.040909,117.860535 74.038147,118.041763 
	C74.038147,118.041763 74.020355,118.002754 73.562607,117.999649 
	C66.019798,117.999313 58.932301,118.119202 51.850342,117.972237 
	C44.632240,117.822456 37.419590,117.410225 30.204552,117.112907 
	C30.189484,116.312889 30.174416,115.512871 30.547081,114.220337 
	C33.087605,113.156517 35.234047,112.120354 37.394245,112.090836 
	C49.600380,111.924034 61.809822,111.998726 74.018135,111.991135 
	C74.010521,112.773643 74.002899,113.556160 73.847778,114.796005 
	C73.536583,115.527206 73.613907,115.731323 73.932243,115.865685 
z"/>
<path fill="#E1BE4A" opacity="1.000000" stroke="none" 
	d="
M30.163475,117.406464 
	C37.419590,117.410225 44.632240,117.822456 51.850342,117.972237 
	C58.932301,118.119202 66.019798,117.999313 73.577164,118.020050 
	C73.793892,118.521919 73.538315,119.000275 73.116974,119.696770 
	C72.529953,119.888725 72.108719,119.862541 71.010445,119.610252 
	C61.608360,119.273758 52.883030,119.068886 44.158379,119.094734 
	C40.085747,119.106796 36.014435,119.565445 31.942524,119.821678 
	C31.509003,119.802383 31.075480,119.783089 30.350130,119.620247 
	C30.079668,118.884476 30.101034,118.292252 30.163475,117.406464 
z"/>
<path fill="#E0BD4F" opacity="1.000000" stroke="none" 
	d="
M74.007233,111.767136 
	C61.809822,111.998726 49.600380,111.924034 37.394245,112.090836 
	C35.234047,112.120354 33.087605,113.156517 30.589630,113.821869 
	C30.185205,113.206581 30.125967,112.497246 30.526672,111.387238 
	C45.299809,111.024422 59.613003,111.062279 73.926193,111.100143 
	C73.926193,111.100143 73.996323,111.543144 74.007233,111.767136 
z"/>
<path fill="#765D0B" opacity="1.000000" stroke="none" 
	d="
M74.217972,111.067062 
	C59.613003,111.062279 45.299809,111.024422 30.527597,111.030594 
	C30.068577,111.074638 29.975174,110.644463 29.929878,110.430695 
	C44.716751,110.303001 59.548920,110.389069 74.734848,110.705017 
	C74.895660,110.967918 74.702698,111.000946 74.217972,111.067062 
z"/>
<path fill="#ECC34F" opacity="1.000000" stroke="none" 
	d="
M90.174530,61.459137 
	C90.961540,61.005138 91.755692,60.898083 92.699783,61.192619 
	C92.568634,63.043415 92.044411,64.492332 92.042755,65.941856 
	C92.016029,89.258858 92.055855,112.575935 92.066193,136.190826 
	C92.044777,136.687317 92.037743,136.885986 92.030708,137.084641 
	C91.761368,137.079346 91.492020,137.074036 90.821274,137.020401 
	C90.335419,113.323441 90.250969,89.674812 90.279266,65.432304 
	C90.421379,64.725983 90.499542,64.598358 90.470215,64.504196 
	C90.403618,64.290390 90.284157,64.093033 90.186188,63.888992 
	C90.184685,63.194687 90.183174,62.500385 90.174530,61.459137 
z"/>
<path fill="#E8C23F" opacity="1.000000" stroke="none" 
	d="
M92.496216,137.073059 
	C92.037743,136.885986 92.044777,136.687317 92.525658,136.218750 
	C104.986923,135.956207 116.974342,135.963593 128.961761,135.970963 
	C129.262177,136.128311 129.514679,136.342194 129.844604,136.829163 
	C117.633865,137.050934 105.297791,137.056198 92.496216,137.073059 
z"/>
<path fill="#AA8D36" opacity="1.000000" stroke="none" 
	d="
M90.121689,64.191071 
	C90.284157,64.093033 90.403618,64.290390 90.470215,64.504196 
	C90.499542,64.598358 90.421379,64.725983 90.277237,64.970146 
	C90.127365,64.898972 90.092270,64.696060 90.121689,64.191071 
z"/>
<path fill="#D0A932" opacity="1.000000" stroke="none" 
	d="
M128.975037,135.505692 
	C116.974342,135.963593 104.986923,135.956207 92.540039,135.920898 
	C92.055855,112.575935 92.016029,89.258858 92.042755,65.941856 
	C92.044411,64.492332 92.568634,63.043415 93.100677,61.219353 
	C93.351631,60.844490 93.654480,60.862862 93.803986,60.882034 
	C99.664185,64.575241 105.980225,67.582733 110.938118,72.085625 
	C117.710930,78.236870 123.450027,85.526283 129.804016,92.614418 
	C129.653488,95.798088 129.083008,98.692558 129.052979,101.592621 
	C128.937531,112.740913 128.995209,123.890999 128.975037,135.505692 
z"/>
<path fill="#127BFD" opacity="1.000000" stroke="none" 
	d="
M167.485367,136.097565 
	C165.869980,137.010757 164.018372,137.684464 162.166779,138.358154 
	C162.017044,137.524811 161.867310,136.691452 161.717575,135.858093 
	C163.561432,135.858093 165.405304,135.858093 167.485367,136.097565 
z"/>
<path fill="#AA9039" opacity="1.000000" stroke="none" 
	d="
M32.409206,119.903915 
	C36.014435,119.565445 40.085747,119.106796 44.158379,119.094734 
	C52.883030,119.068886 61.608360,119.273758 70.694923,119.581985 
	C58.329586,119.848602 45.602737,119.917374 32.409206,119.903915 
z"/>
<path fill="#E1BE4A" opacity="1.000000" stroke="none" 
	d="
M73.940414,115.679108 
	C73.613907,115.731323 73.536583,115.527206 73.818039,115.186279 
	C73.935806,115.119232 73.948593,115.492531 73.940414,115.679108 
z"/>
<path fill="#E1BE4A" opacity="1.000000" stroke="none" 
	d="
M74.186913,117.941238 
	C74.040909,117.860535 74.043671,117.679306 74.068092,117.227203 
	C74.225235,117.145264 74.383240,117.323288 74.482971,117.529495 
	C74.514320,117.594330 74.389183,117.734840 74.186913,117.941238 
z"/>
<path fill="#CCA72A" opacity="1.000000" stroke="none" 
	d="
M113.280617,156.217865 
	C117.369934,155.655823 121.792038,155.068771 126.207260,155.116531 
	C135.492661,155.216919 144.774445,155.650467 154.526001,155.936813 
	C154.425964,156.240875 153.856033,156.832642 153.289581,156.829315 
	C140.062912,156.751999 126.836632,156.610260 113.280617,156.217865 
z"/>
<path fill="#9D8029" opacity="1.000000" stroke="none" 
	d="
M110.783478,174.975204 
	C110.525620,175.176483 110.021599,175.305557 109.284767,175.292038 
	C109.547073,175.067291 110.042198,174.985138 110.783478,174.975204 
z"/>
</svg>